{"title":"Need for Speed 2014 DVDrip English Klam","uid":10543150,"size":2389524105,"categoryP":"video","categoryS":"movies","magnet":"?xt=urn:btih:b8603f2aebf3f74e7f163e96d746c27ae84a227c&amp;dn=Need+for+Speed+2014+DVDrip+English+Klam&amp;tr=udp%3A%2F%2Ftracker.openbittorrent.com%3A80&amp;tr=udp%3A%2F%2Fopen.demonii.com%3A1337&amp;tr=udp%3A%2F%2Ftracker.coppersurfer.tk%3A6969&amp;tr=udp%3A%2F%2Fexodus.desync.com%3A6969","seeders":5,"leechers":0,"uploader":"Klambake","files":-1,"time":1405252122,"description":"With: Aaron Paul, Dominic Cooper and Michael Keaton\n\nTobey Marshall (Aaron Paul), een jonge automonteur die er ingeluisd is door een rijke zakenman, is nog maar net uit de gevangenis wanneer hij mee gaat doen aan een cross-country race. Dit met een wraakplan in zijn gedachten. Waneer zijn ex-partner echter lucht krijgt van de race, schakelt deze direct de politie in.\n\nFresh from prison, a street racer who was framed by a wealthy business associate joins a cross country race with revenge in mind. His ex-partner, learning of the plan, places a massive bounty on his head as the race begins.\n &lt;a href=&quot;\nhttp://www.imdb.com/title/tt2369135&quot; rel=&quot;nofollow&quot; target=&quot;_NEW&quot;&gt;\nhttp://www.imdb.com/title/tt2369135&lt;/a&gt;\t\n\n--------------------- Dutch Friends 4ever ---------------------\n---------------------------------------------------------------\n- Bezoek ook eens mijn vrienden op: &lt;a href=&quot; http://www.Film-Test.nl&quot; rel=&quot;nofollow&quot; target=&quot;_NEW&quot;&gt; http://www.Film-Test.nl&lt;/a&gt; --\n----- voor mijn Nederlandse Sync. ondertitels ---- en meer ----\n------- http://www.Film-Test.nl ---- Over Films en meer -------\n---------------------------------------------------------------\n &lt;a href=&quot;\nhttp://i.imgur.com/YfMENF5.jpg&quot; rel=&quot;nofollow&quot; target=&quot;_NEW&quot;&gt;\nhttp://i.imgur.com/YfMENF5.jpg&lt;/a&gt; &lt;a href=&quot;\nhttp://i.imgur.com/37JRv8F.jpg&quot; rel=&quot;nofollow&quot; target=&quot;_NEW&quot;&gt;\nhttp://i.imgur.com/37JRv8F.jpg&lt;/a&gt; &lt;a href=&quot;\nhttp://i.imgur.com/l840Ore.jpg&quot; rel=&quot;nofollow&quot; target=&quot;_NEW&quot;&gt;\nhttp://i.imgur.com/l840Ore.jpg&lt;/a&gt;\n\nGeneral:\n\nComplete name                            : Need For SpeedNeed For Speed.avi\nFormat                                   : AVI\nFormat/Info                              : Audio Video Interleave\nFile size                                : 2.23 GiB\nDuration                                 : 2h 10mn\nOverall bit rate                         : 2 437 Kbps\n\nVideo:\n\nFormat                                   : MPEG-4 Visual\nFormat profile                           : Simple@L3\nFormat settings, BVOP                    : No\nFormat settings, QPel                    : No\nFormat settings, GMC                     : No warppoints\nFormat settings, Matrix                  : Default (H.263)\nCodec ID                                 : XVID\nCodec ID/Hint                            : XviD\nDuration                                 : 2h 10mn\nBit rate                                 : 1 979 Kbps\nWidth                                    : 720 pixels\nHeight                                   : 304 pixels\nDisplay aspect ratio                     : 2.35:1\nFrame rate                               : 23.976 fps\nColor space                              : YUV\nChroma subsampling                       : 4:2:0\nBit depth                                : 8 bits\nScan type                                : Progressive\nCompression mode                         : Lossy\nBits/(Pixel*Frame)                       : 0.377\nStream size                              : 1.81 GiB (81%)\nWriting library                          : XviD 1.1.2 (UTC 2006-11-01)\n\nAudio:\n\nFormat                                   : AC-3\nFormat/Info                              : Audio Coding 3\nMode extension                           : CM (complete main)\nFormat settings, Endianness              : Big\nCodec ID                                 : 2000\nDuration                                 : 2h 10mn\nSource duration                          : 2h 10mn\nBit rate mode                            : Constant\nBit rate                                 : 448 Kbps\nChannel(s)                               : 6 channels\nChannel positions                        : Front: L C R, Side: L R, LFE\nSampling rate                            : 48.0 KHz\nBit depth                                : 16 bits\nCompression mode                         : Lossy\nStream size                              : 419 MiB (18%)\nAlignment                                : Aligned on interleaves\nInterleave, duration                     : 32 ms (0.77 video frame)\nInterleave, preload duration             : 512 ms\n\n\n","torrent":{"xt":"urn:btih:b8603f2aebf3f74e7f163e96d746c27ae84a227c","amp;dn":"Need+for+Speed+2014+DVDrip+English+Klam","amp;tr":["udp%3A%2F%2Ftracker.openbittorrent.com%3A80","udp%3A%2F%2Fopen.demonii.com%3A1337","udp%3A%2F%2Ftracker.coppersurfer.tk%3A6969","udp%3A%2F%2Fexodus.desync.com%3A6969"],"infoHash":"b8603f2aebf3f74e7f163e96d746c27ae84a227c","infoHashBuffer":{"type":"Buffer","data":[184,96,63,42,235,243,247,78,127,22,62,150,215,70,194,122,232,74,34,124]},"announce":[],"urlList":[]}}